DataType=double
version=3
OpenSimVersion=4.5.2-2025-05-03-6a4c6ec41
endheader
time	q	/jointset/head_joint/q/speed
0	0.08726646259971647	0
0.001	0.08726583652430474	-0.001252149330043706
0.002	0.0872532458499269	-0.02392916939230372
0.003	0.08721714491514661	-0.04827261405428422
0.004	0.08715695363227582	-0.07210980810834883
0.005	0.08707290816621238	-0.09598092353709657
0.006	0.08696504183652937	-0.1197514785232276
0.007	0.08683343855427314	-0.1434547720578102
0.008	0.08667816979324017	-0.1670823796195678
0.009000000000000001	0.08649931026278919	-0.1906362546126346
0.01	0.08629693400844415	-0.2141157713005091
0.011	0.08607111537989827	-0.2375209470816085
0.012	0.08582192878855402	-0.2608516411387696
0.013	0.08554944876609807	-0.2841077537207911
0.01400000000000001	0.08525374994821766	-0.3072891765777351
0.01500000000000001	0.08493490707693892	-0.3303958052816345
0.01600000000000001	0.08459299499833969	-0.3534275361570322
0.01700000000000001	0.08422808866141805	-0.3763842670389487
0.01800000000000001	0.08384026311667868	-0.3992658970790743
0.01900000000000001	0.08342959351479476	-0.4220723267887223
0.02000000000000001	0.08299615510525628	-0.4448034580229721
0.02100000000000001	0.08254002323502684	-0.4674591939795081
0.02200000000000001	0.08206127334720345	-0.4900394391938778
0.02300000000000001	0.08155998097968052	-0.5125440995357144
0.02400000000000001	0.08103622176381779	-0.5349730822047988
0.02500000000000002	0.08049007142311206	-0.5573262957272396
0.02600000000000002	0.07992160577187275	-0.5796036499517059
0.02700000000000002	0.07933090071390125	-0.6018050560457302
0.02800000000000002	0.07871803224117381	-0.6239304264920787
0.02900000000000002	0.07808307643252811	-0.6459796750851922
0.03000000000000002	0.07742610945235334	-0.6679527169276969
0.03100000000000002	0.07674720754928376	-0.6898494684269887
0.03200000000000002	0.07604644705489551	-0.7116698472918903
0.03300000000000002	0.07532390438240695	-0.7334137725293834
0.03400000000000002	0.07458467500040368	-0.7450432263824784
0.03500000000000002	0.07382915516480938	-0.7659946407131788
0.03600000000000003	0.07308079726620795	-0.7307193693992274
0.03700000000000003	0.07236068413499763	-0.7095051732874277
0.03800000000000003	0.07166349449429538	-0.684872443042166
0.03900000000000003	0.07099047329051926	-0.6611683570767675
0.04000000000000003	0.07034123233277398	-0.6373120077039692
0.04100000000000003	0.06971578938619537	-0.6135723915177845
0.04200000000000003	0.06911406107326981	-0.5898827969811522
0.04300000000000003	0.06853598898538914	-0.5662599978793975
0.04400000000000003	0.06798150832191517	-0.5427000044715242
0.04500000000000003	0.06745055569093893	-0.5192039890431062
0.04600000000000003	0.06694306717095343	-0.4957718385029343
0.04700000000000003	0.06645897879453176	-0.4724037577815429
0.04800000000000004	0.0659982264296793	-0.4490998710830859
0.04900000000000004	0.06556074581097809	-0.4258603210494052
0.05000000000000004	0.06514647253347973	-0.402685244098872
0.05100000000000004	0.06475534205586239	-0.3795747765593234
0.05200000000000004	0.06438728970128389	-0.356529053142948
0.05300000000000004	0.06404225065880766	-0.3335482073257467
0.05400000000000004	0.06372015998468594	-0.3106323712534425
0.05500000000000004	0.06342095260367822	-0.2877816757652502
0.05600000000000004	0.06314456331036043	-0.2649962503884234
0.05700000000000004	0.06289092677043601	-0.2422762233401545
0.05800000000000004	0.06265997752204586	-0.2196217215277247
0.05900000000000005	0.06245164997707795	-0.1970328705491676
0.06000000000000005	0.06226587842247627	-0.1745097946938767
0.06100000000000005	0.06210259702154908	-0.152052616943296
0.06200000000000005	0.06196173981527659	-0.1296614589716558
0.06300000000000004	0.06184324072361769	-0.1073364411467588
0.06400000000000004	0.06174703354681603	-0.08507768253081122
0.06500000000000004	0.06167305196670513	-0.06288530088129915
0.06600000000000004	0.0616212295480127	-0.04075941265190376
0.06700000000000005	0.06159149973966394	-0.01870013299345544
0.06800000000000005	0.0615837958760839	0.003292424245076746
0.06900000000000005	0.06159805117849882	0.02521814651556266
0.07000000000000005	0.0616341987562365	0.04707692256965824
0.07100000000000005	0.06169217160802548	0.06886864245772459
0.07200000000000005	0.06177190262329325	0.09059319752772123
0.07300000000000005	0.06187332458346324	0.1122504804240761
0.07400000000000005	0.06199637016325073	0.1338403850865344
0.07500000000000005	0.06214097193195763	0.1553628067489882
0.07600000000000005	0.06230706235476593	0.1768176419382895
0.07700000000000005	0.06249457379403018	0.1982047884730486
0.07800000000000006	0.06270343851056856	0.2195241454624193
0.07900000000000006	0.06293358866495286	0.2407756133048739
0.08000000000000006	0.06318495631879713	0.2619590936869693
0.08100000000000006	0.0634574734360452	0.2830744895821059
0.08200000000000006	0.06375107188425687	0.3041217052492814
0.08300000000000006	0.06406568343589289	0.3251006462318421
0.08400000000000006	0.06440123976959869	0.3460112193562315
0.08500000000000006	0.06475767247148684	0.3668533327307395
0.08600000000000006	0.06512424715251436	0.3662951534214456
0.08700000000000006	0.06547508586387195	0.3353814310104281
0.08800000000000006	0.06579882946255111	0.3121049928219298
0.08900000000000007	0.06609839112297626	0.2870176122953928
0.09000000000000007	0.06637313482464562	0.2624691346195606
0.09100000000000007	0.06662330736639442	0.2378753511706864
0.09200000000000007	0.06684893617088235	0.2133817187457752
0.09300000000000007	0.06705010338680235	0.1889522324839329
0.09400000000000007	0.06722687772083613	0.1645960132559185
0.09500000000000007	0.06737933138850023	0.1403109578525839
0.09600000000000007	0.06750753589685603	0.1160977525747124
0.09700000000000007	0.06761156309150992	0.09195638821104309
0.09800000000000007	0.06769148489444712	0.06788702673054414
0.09900000000000007	0.06774737336744611	0.04388978575074191
0.1000000000000001	0.06777930069453	0.01996479214336511
0.1010000000000001	0.06778733918455779	-0.00388783129153095
0.1020000000000001	0.06777156126881236	-0.02766796250630387
0.1030000000000001	0.06773203949983789	-0.05137548102593566
0.1040000000000001	0.06766884654997193	-0.07501026773881424
0.1050000000000001	0.06758205520995851	-0.09857220494353809
0.1060000000000001	0.0674717383875464	-0.1220611763320695
0.1070000000000001	0.06733796910609623	-0.1454770669887395
0.1080000000000001	0.06718082050319057	-0.1688197633853357
0.1090000000000001	0.06700036582924845	-0.1920891533771938
0.1100000000000001	0.06679667844614387	-0.2152851261990706
0.1110000000000001	0.06656983182582836	-0.2384075724611074
0.1120000000000001	0.06631989954895767	-0.261456384144808
0.1130000000000001	0.06604695530352238	-0.2844314545990548
0.1140000000000001	0.06575107288348248	-0.3073326785361589
0.1150000000000001	0.0654323261874059	-0.3301599520279485
0.1160000000000001	0.06509078921711095	-0.352913172501897
0.1170000000000001	0.06472653607631258	-0.3755922387372932
0.1180000000000001	0.06433964096927249	-0.3981970508614552
0.1190000000000001	0.0639301781994529	-0.4207275103459905
0.1200000000000001	0.06349822216817422	-0.4431835200031035
0.1210000000000001	0.06304384737327616	-0.4655649839819532
0.1220000000000001	0.06256712840778265	-0.4878718077650613
0.1230000000000001	0.06206813995857025	-0.5101038981647743
0.1240000000000001	0.06154695680504002	-0.5322611633197792
0.1250000000000001	0.06100365381779296	-0.5543435126916763
0.1260000000000001	0.0604383059573087	-0.5763508570616095
0.1270000000000001	0.05985098827262774	-0.598283108526955
0.1280000000000001	0.05924177590003673	-0.6201401804980712
0.1290000000000001	0.05861074406175715	-0.6419219876951103
0.1300000000000001	0.05795796806463706	-0.6636284461448932
0.1310000000000001	0.05728352329884598	-0.6852594731778482
0.1320000000000001	0.05658748523657278	-0.7068149874250154
0.1330000000000001	0.05586992943072652	-0.7282949088151177
0.1340000000000001	0.05514514128168298	-0.7212796564594026
0.1350000000000001	0.0544202921604943	-0.72841685289031
0.1360000000000001	0.05370790186656565	-0.6963620316602165
0.1370000000000001	0.05302265342531063	-0.674133212376966
0.1380000000000001	0.0523608158584673	-0.6495403387571436
0.1390000000000001	0.05172323735933713	-0.6256151349058012
0.1400000000000001	0.051109627142116	-0.6016038322052142
0.1410000000000001	0.05051997748537886	-0.5776940711914936
0.1420000000000001	0.04995421008701904	-0.553839372522683
0.1430000000000001	0.0494122640135958	-0.5300514782499816
0.1440000000000001	0.04889407382996074	-0.5063276497264576
0.1450000000000001	0.04839957503985313	-0.4826687478256584
0.1460000000000001	0.04792870273455446	-0.4590747365882817
0.1470000000000001	0.04748139193062452	-0.4355458014165974
0.1480000000000001	0.04705757748758088	-0.4120820709920864
0.1490000000000001	0.04665719413004145	-0.388683686432019
0.1500000000000001	0.04628017644388761	-0.3653507840915939
0.1510000000000001	0.04592645887888746	-0.3420834998415831
0.1520000000000001	0.04559597574971178	-0.3188819680053472
0.1530000000000001	0.04528866123734876	-0.2957463216240963
0.1540000000000001	0.0450044493904187	-0.2726766923919156
0.1550000000000001	0.04474327412651249	-0.2496732106729989
0.1560000000000001	0.04450506923352307	-0.2267360054985143
0.1570000000000001	0.04428976837097749	-0.2038652045686086
0.1580000000000001	0.04409730507136749	-0.1810609342532023
0.1590000000000001	0.04392761274147922	-0.1583233195931514
0.1600000000000001	0.04378062466372168	-0.1356524843013786
0.1610000000000001	0.04365627399745407	-0.1130485507640702
0.1620000000000001	0.04355449378031193	-0.09051164004191077
0.1630000000000001	0.04347521692953201	-0.06804187187135893
0.1640000000000001	0.04341837624327583	-0.04563936466595963
0.1650000000000001	0.04338390440195193	-0.02330423551769121
0.1660000000000001	0.04337173396953674	-0.001036600198343937
0.1670000000000001	0.04338179739489407	0.0211634268390723
0.1680000000000001	0.04341402701309319	0.04329573245889386
0.1690000000000001	0.04346835504672545	0.06536020484134508
0.1700000000000001	0.04354471360721939	0.08735673348105857
0.1710000000000001	0.04364303469615446	0.1092852091855762
0.1720000000000001	0.04376325020657312	0.1311455240738331
0.1730000000000001	0.04390529192429152	0.1529375715746277
0.1740000000000001	0.04406909152920853	0.1746612464250782
0.1750000000000001	0.04425458059661334	0.19631644466907
0.1760000000000001	0.04446169059849145	0.2179030636556944
0.1770000000000001	0.04469035290482903	0.2394210020376814
0.1780000000000001	0.04494049878491584	0.2608701597698284
0.1790000000000001	0.04521205940864648	0.2822504381074264
0.1800000000000001	0.0455049658478201	0.3035617396046871
0.1810000000000001	0.04581914907743855	0.3248039681131701
0.1820000000000001	0.04615453997700291	0.3459770287802146
0.1830000000000001	0.04651106933180853	0.3670808280473758
0.1840000000000001	0.04688866783423845	0.3881152736488681
0.1850000000000001	0.04728726608505526	0.4090802746100169
0.1860000000000001	0.04770502533710715	0.4264372303087117
0.1870000000000001	0.04811382701898336	0.3911651557024048
0.1880000000000001	0.04849859625888038	0.378372403846902
0.1890000000000001	0.04886315478471091	0.3507437759228484
0.1900000000000001	0.04920197300503681	0.3268918544130099
0.1910000000000001	0.04951651334267992	0.302188068632205
0.1920000000000001	0.04980649955766866	0.2777836678372474
0.1930000000000001	0.05007208796975838	0.2533925211908048
0.1940000000000001	0.05031332749722881	0.2290859568360604
0.1950000000000001	0.05053029393755934	0.2048464049650197
0.1960000000000001	0.05072305657149467	0.1806784019321468
0.1970000000000001	0.05089168646646229	0.1565809847444458
0.1980000000000001	0.0510362544098197	0.1325545562558102
0.1990000000000001	0.05115683142105465	0.1085991778725528
